<?xml version="1.0" encoding="UTF-8"?>
<svg width="452px" height="90px" viewBox="0 0 452 90" version="1.1" xmlns="http://www.w3.org/2000/svg" xmlns:xlink="http://www.w3.org/1999/xlink">
    <!-- Generator: Sketch 59.1 (86144) - https://sketch.com -->
    <title>ULTRON Copy 4</title>
    <desc>Created with Sketch.</desc>
    <g id="Prototype" stroke="none" stroke-width="1" fill="none" fill-rule="evenodd">
        <g id="Coming-soon" transform="translate(-494.000000, -325.000000)" fill="#FFFFFF" fill-rule="nonzero">
            <g id="Group-3" transform="translate(494.000000, 325.000000)">
                <path d="M33.8121547,90 C44.0810313,90 52.3462247,86.9350164 58.6077348,80.8050491 C64.8692449,74.6750818 68,65.6446938 68,53.713885 L68,53.713885 L68,2 L53.7237569,2 L53.7237569,53.713885 C53.7237569,61.4483403 51.9914058,67.2080411 48.5267035,70.9929874 C45.0620012,74.7779336 40.2406384,76.6704067 34.0626151,76.6704067 C27.801105,76.6704067 22.9379988,74.7779336 19.4732965,70.9929874 C16.0085942,67.2080411 14.2762431,61.4483403 14.2762431,53.713885 L14.2762431,53.713885 L14.2762431,2 L0,2 L0,53.713885 C0,65.6446938 3.08901166,74.6750818 9.26703499,80.8050491 C15.4450583,86.9350164 23.6267649,90 33.8121547,90 Z M129,89 L129,77.9065156 L98.3296089,77.9065156 L98.3296089,1 L84,1 L84,89 L129,89 Z M172.181102,89 L172.181102,12.4674221 L197,12.4674221 L197,1 L133,1 L133,12.4674221 L157.692913,12.4674221 L157.692913,89 L172.181102,89 Z M221.164329,89 L221.164329,53.8498584 L231.228457,53.8498584 L253.096192,89 L269,89 L246.014028,53.2266289 C253.303273,51.98017 258.873747,49.1548631 262.725451,44.7507082 C266.577154,40.3465534 268.503006,34.6959396 268.503006,27.7988669 C268.503006,19.7384325 265.914496,13.2568461 260.737475,8.35410765 C255.560454,3.45136922 247.960588,1 237.937876,1 L237.937876,1 L207,1 L207,89 L221.164329,89 Z M237.75,44 L222,44 L222,14 L237.75,14 C243.666667,14 248.020833,15.3265306 250.8125,17.9795918 C253.604167,20.6326531 255,24.3265306 255,29.0612245 C255,39.0204082 249.25,44 237.75,44 L237.75,44 Z M323.624642,90 C331.767908,90 339.14255,88.0705394 345.748567,84.2116183 C352.354585,80.3526971 357.547994,75 361.328797,68.153527 C365.109599,61.3070539 367,53.5684647 367,44.9377593 C367,36.3070539 365.109599,28.5684647 361.328797,21.7219917 C357.547994,14.8755187 352.354585,9.54356846 345.748567,5.72614108 C339.14255,1.90871369 331.767908,0 323.624642,0 C315.398281,0 307.982092,1.90871369 301.376074,5.72614108 C294.770057,9.54356846 289.555874,14.8755187 285.733524,21.7219917 C281.911175,28.5684647 280,36.3070539 280,44.9377593 C280,53.5684647 281.911175,61.3070539 285.733524,68.153527 C289.555874,75 294.770057,80.3526971 301.376074,84.2116183 C307.982092,88.0705394 315.398281,90 323.624642,90 Z M322.125,77 C316.458333,77 311.416667,75.703268 307,73.1098039 C302.583333,70.5163399 299.145833,66.7934641 296.6875,61.9411765 C294.229167,57.0888889 293,51.4418301 293,45 C293,38.5581699 294.229167,32.9111111 296.6875,28.0588235 C299.145833,23.2065359 302.583333,19.4836601 307,16.8901961 C311.416667,14.296732 316.458333,13 322.125,13 C327.708333,13 332.6875,14.296732 337.0625,16.8901961 C341.4375,19.4836601 344.854167,23.2065359 347.3125,28.0588235 C349.770833,32.9111111 351,38.5581699 351,45 C351,51.4418301 349.770833,57.0888889 347.3125,61.9411765 C344.854167,66.7934641 341.4375,70.5163399 337.0625,73.1098039 C332.6875,75.703268 327.708333,77 322.125,77 Z M394.374781,89 L394.374781,23.9673759 L437.625219,89 L452,89 L452,1 L437.625219,1 L437.625219,66.2822695 L394.374781,1 L380,1 L380,89 L394.374781,89 Z" id="ULTRON-Copy-4"></path>
            </g>
        </g>
    </g>
</svg>